<svg xmlns="http://www.w3.org/2000/svg" width="4424.535" height="1535.22" viewBox="0 0 4424.535 1535.22">
  <defs>
    <style>
      .cls-1 {
        fill: #fefefe;
        fill-rule: evenodd;
      }
    </style>
  </defs>
  <path id="Keysy" class="cls-1" d="M376.369,2860.21H605.8l84.824-407,159.329-138.14,215.654,545.14h252.07l-287.7-689.31,513.23-489.23H1257.28c-153.13,156.3-385.717,388.7-515.935,518.85h0L854.1,1681.67H626.181ZM2173.06,2467.58c22.43-87.32,29.73-148.83,29.73-197.81,0-174.9-104.25-316.63-328.48-316.63-357.79,0-477.43,360.59-477.43,565.6h0c0,214.6,95.78,357.16,338.8,357.16,235.64,0,348.07-122.86,409.52-290.7H1917.69c-26.83,51.12-59.15,113.98-163.91,113.98-103.6,0-132.21-78.36-132.21-163.1,0-28.96,4.95-53.58,7.5-68.5h543.99Zm-510.55-146.23h0c20.08-83.56,73.32-199.07,191.98-199.07,98.03,0,131.39,61.57,131.39,137.5a255.755,255.755,0,0,1-7.09,61.57H1662.51Zm674.3-351.42,100.23,908.1c-45.66,95.04-82.74,146.36-167.49,146.36-21.6,0-52.35-2.13-73.89-5.57l-39.7,189.24c25.87,4.96,89.99,8.81,105.89,8.81,180.13,0,265.79-22.63,402.77-289.51l488.56-957.43H2914.45c-133.3,271-260.86,576.57-305.16,679.22h-1.72c0.48-93.36-18.91-337.98-40.43-679.22H2336.81Zm771.43,611.08h0c-3.44,186.32,120.35,294.68,343.75,294.68,260.5,0,368.53-137.05,368.53-290,0-140.01-91.37-206.07-259.05-277.07-100.51-42.93-135.12-60.05-135.12-106.55,0-61.78,51.12-83.02,100.22-83.02,85.43,0,116.11,46.22,119.76,114.18h219.52c6.06-140.7-89.17-280.09-325.72-280.09-220.66,0-339.98,114.21-339.98,273.98,0,127.55,74.86,190.24,238,259.73,102.77,43.75,148.39,74.15,148.39,130.56,0,63.42-45.4,95.39-117.96,95.39-75.93,0-129.39-39.95-133.03-131.79H3108.24Zm876.29-611.08,100.23,908.1c-45.66,95.04-82.74,146.36-167.49,146.36-21.6,0-52.35-2.13-73.89-5.57l-39.7,189.24c25.87,4.96,89.99,8.81,105.89,8.81,180.13,0,265.79-22.63,402.77-289.51l488.56-957.43H4562.17c-133.3,271-260.85,576.57-305.16,679.22h-1.72c0.48-93.36-18.91-337.98-40.43-679.22H3984.53Z" transform="translate(-376.375 -1681.66)"/>
</svg>
